<svg xmlns="http://www.w3.org/2000/svg" viewBox="0 0 100 100" fill="#fff">
  <!--
    Sedan side profile: bold silhouette with roof cabin, two wheel cutouts,
    and a windshield/rear-window window cutout. fill-rule=evenodd punches
    the holes out of the solid body+cabin shape.
  -->
  <path fill-rule="evenodd" d="
    M 8,72
    L 8,62
    L 16,62
    C 20,50 28,38 36,34
    L 50,30
    L 66,30
    C 74,30 82,34 88,40
    L 94,48
    L 94,62
    L 92,62
    L 92,72
    Z

    M 17,72
    A 11,11 0 1 0 39,72
    A 11,11 0 1 0 17,72 Z

    M 22,72
    A 6,6 0 1 1 34,72
    A 6,6 0 1 1 22,72 Z

    M 61,72
    A 11,11 0 1 0 83,72
    A 11,11 0 1 0 61,72 Z

    M 66,72
    A 6,6 0 1 1 78,72
    A 6,6 0 1 1 66,72 Z

    M 36,38
    L 32,54
    L 52,54
    L 52,38
    Z

    M 54,38
    L 54,54
    L 72,54
    C 76,54 80,50 82,46
    L 76,40
    C 72,36 66,34 60,34
    Z
  "/>
</svg>
